<mxfile host="app.diagrams.net" modified="2022-12-03T02:01:23.870Z" agent="5.0 (Macintosh; Intel Mac OS X 10_15_7) AppleWebKit/537.36 (KHTML, like Gecko) Chrome/107.0.0.0 Safari/537.36" etag="ckD47RRl_-wXT4n696rp" version="20.2.8" type="github">
  <diagram id="R2lEEEUBdFMjLlhIrx00" name="Page-1">
    <mxGraphModel dx="1881" dy="1612" grid="1" gridSize="10" guides="1" tooltips="1" connect="1" arrows="1" fold="1" page="1" pageScale="1" pageWidth="850" pageHeight="1100" math="0" shadow="0" extFonts="Permanent Marker^https://fonts.googleapis.com/css?family=Permanent+Marker">
      <root>
        <mxCell id="0" />
        <mxCell id="1" parent="0" />
        <mxCell id="-Yp7aiIqVqqTGb4Fy1kx-1" value="Proveedor" style="whiteSpace=wrap;html=1;align=center;" vertex="1" parent="1">
          <mxGeometry x="120" y="100" width="100" height="40" as="geometry" />
        </mxCell>
        <mxCell id="-Yp7aiIqVqqTGb4Fy1kx-4" value="nombre" style="ellipse;whiteSpace=wrap;html=1;align=center;" vertex="1" parent="1">
          <mxGeometry x="229.7" y="193.6" width="100" height="40" as="geometry" />
        </mxCell>
        <mxCell id="-Yp7aiIqVqqTGb4Fy1kx-5" value="" style="endArrow=none;html=1;rounded=0;entryX=0.343;entryY=-0.004;entryDx=0;entryDy=0;entryPerimeter=0;exitX=0.903;exitY=1.06;exitDx=0;exitDy=0;exitPerimeter=0;" edge="1" target="-Yp7aiIqVqqTGb4Fy1kx-4" parent="1">
          <mxGeometry width="50" height="50" relative="1" as="geometry">
            <mxPoint x="190.00000000000017" y="139.99999999999997" as="sourcePoint" />
            <mxPoint x="360.69999999999993" y="205.6" as="targetPoint" />
          </mxGeometry>
        </mxCell>
        <mxCell id="-Yp7aiIqVqqTGb4Fy1kx-7" value="apellido paterno" style="ellipse;whiteSpace=wrap;html=1;align=center;" vertex="1" parent="1">
          <mxGeometry x="270" y="-40" width="100" height="40" as="geometry" />
        </mxCell>
        <mxCell id="-Yp7aiIqVqqTGb4Fy1kx-8" value="" style="endArrow=none;html=1;rounded=0;entryX=0.343;entryY=-0.004;entryDx=0;entryDy=0;entryPerimeter=0;" edge="1" target="-Yp7aiIqVqqTGb4Fy1kx-7" parent="1">
          <mxGeometry width="50" height="50" relative="1" as="geometry">
            <mxPoint x="325.36392405063305" y="97" as="sourcePoint" />
            <mxPoint x="450.99999999999994" y="165" as="targetPoint" />
          </mxGeometry>
        </mxCell>
        <mxCell id="-Yp7aiIqVqqTGb4Fy1kx-9" value="apellido materno" style="ellipse;whiteSpace=wrap;html=1;align=center;" vertex="1" parent="1">
          <mxGeometry x="90" y="193.6" width="100" height="40" as="geometry" />
        </mxCell>
        <mxCell id="-Yp7aiIqVqqTGb4Fy1kx-10" value="" style="endArrow=none;html=1;rounded=0;entryX=0.343;entryY=-0.004;entryDx=0;entryDy=0;entryPerimeter=0;exitX=0.357;exitY=1.04;exitDx=0;exitDy=0;exitPerimeter=0;" edge="1" target="-Yp7aiIqVqqTGb4Fy1kx-9" parent="1" source="-Yp7aiIqVqqTGb4Fy1kx-1">
          <mxGeometry width="50" height="50" relative="1" as="geometry">
            <mxPoint x="145.36392405063305" y="260" as="sourcePoint" />
            <mxPoint x="270.99999999999994" y="328" as="targetPoint" />
          </mxGeometry>
        </mxCell>
        <mxCell id="-Yp7aiIqVqqTGb4Fy1kx-13" value="foto" style="ellipse;whiteSpace=wrap;html=1;align=center;" vertex="1" parent="1">
          <mxGeometry x="20" y="76" width="100" height="40" as="geometry" />
        </mxCell>
        <mxCell id="-Yp7aiIqVqqTGb4Fy1kx-14" value="" style="endArrow=none;html=1;rounded=0;" edge="1" parent="1">
          <mxGeometry width="50" height="50" relative="1" as="geometry">
            <mxPoint x="35.363924050633045" y="20" as="sourcePoint" />
            <mxPoint x="70" y="80" as="targetPoint" />
          </mxGeometry>
        </mxCell>
        <mxCell id="-Yp7aiIqVqqTGb4Fy1kx-15" value="fecha de nacimiento" style="ellipse;whiteSpace=wrap;html=1;align=center;" vertex="1" parent="1">
          <mxGeometry x="119.99999999999999" y="50" width="100" height="40" as="geometry" />
        </mxCell>
        <mxCell id="-Yp7aiIqVqqTGb4Fy1kx-16" value="" style="endArrow=none;html=1;rounded=0;entryX=0.343;entryY=-0.004;entryDx=0;entryDy=0;entryPerimeter=0;" edge="1" target="-Yp7aiIqVqqTGb4Fy1kx-15" parent="1">
          <mxGeometry width="50" height="50" relative="1" as="geometry">
            <mxPoint x="225.36392405063305" y="44" as="sourcePoint" />
            <mxPoint x="350.99999999999994" y="112" as="targetPoint" />
          </mxGeometry>
        </mxCell>
        <mxCell id="-Yp7aiIqVqqTGb4Fy1kx-17" value="entidad de nacimiento" style="ellipse;whiteSpace=wrap;html=1;align=center;" vertex="1" parent="1">
          <mxGeometry x="240" y="30" width="100" height="40" as="geometry" />
        </mxCell>
        <mxCell id="-Yp7aiIqVqqTGb4Fy1kx-18" value="" style="endArrow=none;html=1;rounded=0;entryX=0.343;entryY=-0.004;entryDx=0;entryDy=0;entryPerimeter=0;" edge="1" target="-Yp7aiIqVqqTGb4Fy1kx-17" parent="1">
          <mxGeometry width="50" height="50" relative="1" as="geometry">
            <mxPoint x="375.36392405063305" y="20" as="sourcePoint" />
            <mxPoint x="501" y="88" as="targetPoint" />
          </mxGeometry>
        </mxCell>
        <mxCell id="-Yp7aiIqVqqTGb4Fy1kx-19" value="direccion" style="ellipse;whiteSpace=wrap;html=1;align=center;" vertex="1" parent="1">
          <mxGeometry x="10" y="150" width="100" height="40" as="geometry" />
        </mxCell>
        <mxCell id="-Yp7aiIqVqqTGb4Fy1kx-20" value="" style="endArrow=none;html=1;rounded=0;entryX=0.343;entryY=-0.004;entryDx=0;entryDy=0;entryPerimeter=0;" edge="1" target="-Yp7aiIqVqqTGb4Fy1kx-19" parent="1">
          <mxGeometry width="50" height="50" relative="1" as="geometry">
            <mxPoint x="15.363924050633045" y="140" as="sourcePoint" />
            <mxPoint x="140.99999999999994" y="208" as="targetPoint" />
          </mxGeometry>
        </mxCell>
        <mxCell id="-Yp7aiIqVqqTGb4Fy1kx-21" value="email" style="ellipse;whiteSpace=wrap;html=1;align=center;" vertex="1" parent="1">
          <mxGeometry x="80" y="-40" width="100" height="40" as="geometry" />
        </mxCell>
        <mxCell id="-Yp7aiIqVqqTGb4Fy1kx-22" value="" style="endArrow=none;html=1;rounded=0;entryX=0.343;entryY=-0.004;entryDx=0;entryDy=0;entryPerimeter=0;" edge="1" target="-Yp7aiIqVqqTGb4Fy1kx-21" parent="1">
          <mxGeometry width="50" height="50" relative="1" as="geometry">
            <mxPoint x="390" y="30" as="sourcePoint" />
            <mxPoint x="631" y="108" as="targetPoint" />
          </mxGeometry>
        </mxCell>
        <mxCell id="-Yp7aiIqVqqTGb4Fy1kx-25" value="telefono casa" style="ellipse;whiteSpace=wrap;html=1;align=center;" vertex="1" parent="1">
          <mxGeometry x="-120" y="130" width="100" height="40" as="geometry" />
        </mxCell>
        <mxCell id="-Yp7aiIqVqqTGb4Fy1kx-26" value="" style="endArrow=none;html=1;rounded=0;entryX=0.343;entryY=-0.004;entryDx=0;entryDy=0;entryPerimeter=0;" edge="1" target="-Yp7aiIqVqqTGb4Fy1kx-25" parent="1">
          <mxGeometry width="50" height="50" relative="1" as="geometry">
            <mxPoint x="85.36392405063305" y="270" as="sourcePoint" />
            <mxPoint x="210.99999999999994" y="338" as="targetPoint" />
          </mxGeometry>
        </mxCell>
        <mxCell id="-Yp7aiIqVqqTGb4Fy1kx-27" value="telefono movil" style="ellipse;whiteSpace=wrap;html=1;align=center;" vertex="1" parent="1">
          <mxGeometry x="40" y="300" width="100" height="40" as="geometry" />
        </mxCell>
        <mxCell id="-Yp7aiIqVqqTGb4Fy1kx-28" value="" style="endArrow=none;html=1;rounded=0;entryX=0.343;entryY=-0.004;entryDx=0;entryDy=0;entryPerimeter=0;" edge="1" target="-Yp7aiIqVqqTGb4Fy1kx-27" parent="1">
          <mxGeometry width="50" height="50" relative="1" as="geometry">
            <mxPoint x="205.36392405063305" y="270" as="sourcePoint" />
            <mxPoint x="330.99999999999994" y="338" as="targetPoint" />
          </mxGeometry>
        </mxCell>
        <mxCell id="-Yp7aiIqVqqTGb4Fy1kx-29" value="nivel de estudio" style="ellipse;whiteSpace=wrap;html=1;align=center;" vertex="1" parent="1">
          <mxGeometry x="80" y="250" width="100" height="40" as="geometry" />
        </mxCell>
        <mxCell id="-Yp7aiIqVqqTGb4Fy1kx-30" value="" style="endArrow=none;html=1;rounded=0;entryX=0.343;entryY=-0.004;entryDx=0;entryDy=0;entryPerimeter=0;" edge="1" target="-Yp7aiIqVqqTGb4Fy1kx-29" parent="1">
          <mxGeometry width="50" height="50" relative="1" as="geometry">
            <mxPoint x="325.36392405063305" y="240" as="sourcePoint" />
            <mxPoint x="450.99999999999994" y="308" as="targetPoint" />
          </mxGeometry>
        </mxCell>
        <mxCell id="-Yp7aiIqVqqTGb4Fy1kx-31" value="Servicio" style="whiteSpace=wrap;html=1;align=center;" vertex="1" parent="1">
          <mxGeometry x="520" y="100" width="100" height="40" as="geometry" />
        </mxCell>
        <mxCell id="-Yp7aiIqVqqTGb4Fy1kx-33" value="ofrece" style="shape=rhombus;perimeter=rhombusPerimeter;whiteSpace=wrap;html=1;align=center;" vertex="1" parent="1">
          <mxGeometry x="335" y="105" width="90" height="30" as="geometry" />
        </mxCell>
        <mxCell id="-Yp7aiIqVqqTGb4Fy1kx-35" value="&lt;span style=&quot;color: rgb(0, 0, 0); font-family: helvetica; font-size: 12px; font-style: normal; font-weight: 400; letter-spacing: normal; text-align: center; text-indent: 0px; text-transform: none; word-spacing: 0px; background-color: rgb(248, 249, 250); display: inline; float: none;&quot;&gt;M:N&lt;/span&gt;" style="text;whiteSpace=wrap;html=1;" vertex="1" parent="1">
          <mxGeometry x="340" y="86" width="50" height="30" as="geometry" />
        </mxCell>
        <mxCell id="-Yp7aiIqVqqTGb4Fy1kx-36" value="(1,*)" style="text;html=1;align=center;verticalAlign=middle;resizable=0;points=[];autosize=1;strokeColor=none;fillColor=none;" vertex="1" parent="1">
          <mxGeometry x="480" y="96" width="40" height="20" as="geometry" />
        </mxCell>
        <mxCell id="-Yp7aiIqVqqTGb4Fy1kx-39" value="años de experiencia" style="ellipse;whiteSpace=wrap;html=1;align=center;" vertex="1" parent="1">
          <mxGeometry x="380" y="150" width="100" height="40" as="geometry" />
        </mxCell>
        <mxCell id="-Yp7aiIqVqqTGb4Fy1kx-40" value="" style="endArrow=none;html=1;rounded=0;entryX=0.343;entryY=-0.004;entryDx=0;entryDy=0;entryPerimeter=0;exitX=1;exitY=1;exitDx=0;exitDy=0;" edge="1" target="-Yp7aiIqVqqTGb4Fy1kx-39" parent="1" source="-Yp7aiIqVqqTGb4Fy1kx-33">
          <mxGeometry width="50" height="50" relative="1" as="geometry">
            <mxPoint x="745.363924050633" y="100" as="sourcePoint" />
            <mxPoint x="871" y="168" as="targetPoint" />
          </mxGeometry>
        </mxCell>
        <mxCell id="-Yp7aiIqVqqTGb4Fy1kx-41" value="comprobante" style="ellipse;whiteSpace=wrap;html=1;align=center;" vertex="1" parent="1">
          <mxGeometry x="280" y="150" width="100" height="40" as="geometry" />
        </mxCell>
        <mxCell id="-Yp7aiIqVqqTGb4Fy1kx-42" value="" style="endArrow=none;html=1;rounded=0;entryX=0.343;entryY=-0.004;entryDx=0;entryDy=0;entryPerimeter=0;exitX=0.309;exitY=0.883;exitDx=0;exitDy=0;exitPerimeter=0;" edge="1" target="-Yp7aiIqVqqTGb4Fy1kx-41" parent="1" source="-Yp7aiIqVqqTGb4Fy1kx-33">
          <mxGeometry width="50" height="50" relative="1" as="geometry">
            <mxPoint x="725.363924050633" y="165.6" as="sourcePoint" />
            <mxPoint x="851" y="233.6" as="targetPoint" />
          </mxGeometry>
        </mxCell>
        <mxCell id="-Yp7aiIqVqqTGb4Fy1kx-46" value="nombre" style="ellipse;whiteSpace=wrap;html=1;align=center;" vertex="1" parent="1">
          <mxGeometry x="930" y="166" width="100" height="40" as="geometry" />
        </mxCell>
        <mxCell id="-Yp7aiIqVqqTGb4Fy1kx-47" value="" style="endArrow=none;html=1;rounded=0;entryX=0.343;entryY=-0.004;entryDx=0;entryDy=0;entryPerimeter=0;" edge="1" target="-Yp7aiIqVqqTGb4Fy1kx-46" parent="1">
          <mxGeometry width="50" height="50" relative="1" as="geometry">
            <mxPoint x="935.363924050633" y="110" as="sourcePoint" />
            <mxPoint x="1061" y="178" as="targetPoint" />
          </mxGeometry>
        </mxCell>
        <mxCell id="-Yp7aiIqVqqTGb4Fy1kx-48" value="descripcion" style="ellipse;whiteSpace=wrap;html=1;align=center;" vertex="1" parent="1">
          <mxGeometry x="1050" y="100" width="100" height="40" as="geometry" />
        </mxCell>
        <mxCell id="-Yp7aiIqVqqTGb4Fy1kx-49" value="" style="endArrow=none;html=1;rounded=0;entryX=0.343;entryY=-0.004;entryDx=0;entryDy=0;entryPerimeter=0;" edge="1" target="-Yp7aiIqVqqTGb4Fy1kx-48" parent="1">
          <mxGeometry width="50" height="50" relative="1" as="geometry">
            <mxPoint x="1055.3639240506332" y="44" as="sourcePoint" />
            <mxPoint x="1181" y="112" as="targetPoint" />
          </mxGeometry>
        </mxCell>
        <mxCell id="-Yp7aiIqVqqTGb4Fy1kx-50" value="" style="endArrow=none;html=1;startArrow=none;rounded=0;exitX=0;exitY=0.5;exitDx=0;exitDy=0;" edge="1" target="-Yp7aiIqVqqTGb4Fy1kx-51" parent="1" source="-Yp7aiIqVqqTGb4Fy1kx-33">
          <mxGeometry width="50" height="50" relative="1" as="geometry">
            <mxPoint x="448" y="140" as="sourcePoint" />
            <mxPoint x="378" y="175" as="targetPoint" />
          </mxGeometry>
        </mxCell>
        <mxCell id="-Yp7aiIqVqqTGb4Fy1kx-51" value="" style="shape=waypoint;sketch=0;fillStyle=solid;size=6;pointerEvents=1;points=[];fillColor=none;resizable=0;rotatable=0;perimeter=centerPerimeter;snapToPoint=1;shadow=0;" vertex="1" parent="1">
          <mxGeometry x="200" y="100" width="40" height="40" as="geometry" />
        </mxCell>
        <mxCell id="-Yp7aiIqVqqTGb4Fy1kx-52" value="" style="endArrow=none;html=1;startArrow=none;rounded=0;exitX=1;exitY=0.5;exitDx=0;exitDy=0;" edge="1" target="-Yp7aiIqVqqTGb4Fy1kx-53" parent="1">
          <mxGeometry width="50" height="50" relative="1" as="geometry">
            <mxPoint x="424" y="120" as="sourcePoint" />
            <mxPoint x="529" y="120" as="targetPoint" />
          </mxGeometry>
        </mxCell>
        <mxCell id="-Yp7aiIqVqqTGb4Fy1kx-53" value="" style="shape=waypoint;sketch=0;fillStyle=solid;size=6;pointerEvents=1;points=[];fillColor=none;resizable=0;rotatable=0;perimeter=centerPerimeter;snapToPoint=1;shadow=0;" vertex="1" parent="1">
          <mxGeometry x="501" y="100" width="40" height="40" as="geometry" />
        </mxCell>
        <mxCell id="-Yp7aiIqVqqTGb4Fy1kx-55" value="(1,*)" style="text;html=1;align=center;verticalAlign=middle;resizable=0;points=[];autosize=1;strokeColor=none;fillColor=none;" vertex="1" parent="1">
          <mxGeometry x="220" y="100" width="40" height="20" as="geometry" />
        </mxCell>
        <mxCell id="-Yp7aiIqVqqTGb4Fy1kx-56" value="Cuenta Bancaria" style="whiteSpace=wrap;html=1;align=center;" vertex="1" parent="1">
          <mxGeometry x="-250" y="-70" width="100" height="40" as="geometry" />
        </mxCell>
        <mxCell id="-Yp7aiIqVqqTGb4Fy1kx-59" value="CLABE" style="ellipse;whiteSpace=wrap;html=1;align=center;" vertex="1" parent="1">
          <mxGeometry x="-150" y="-14" width="100" height="40" as="geometry" />
        </mxCell>
        <mxCell id="-Yp7aiIqVqqTGb4Fy1kx-60" value="" style="endArrow=none;html=1;rounded=0;entryX=0.343;entryY=-0.004;entryDx=0;entryDy=0;entryPerimeter=0;" edge="1" target="-Yp7aiIqVqqTGb4Fy1kx-59" parent="1">
          <mxGeometry width="50" height="50" relative="1" as="geometry">
            <mxPoint x="-144.63607594936695" y="-70" as="sourcePoint" />
            <mxPoint x="-19.000000000000057" y="-2" as="targetPoint" />
          </mxGeometry>
        </mxCell>
        <mxCell id="-Yp7aiIqVqqTGb4Fy1kx-61" value="Banco" style="ellipse;whiteSpace=wrap;html=1;align=center;" vertex="1" parent="1">
          <mxGeometry x="-310" y="-10" width="100" height="40" as="geometry" />
        </mxCell>
        <mxCell id="-Yp7aiIqVqqTGb4Fy1kx-62" value="" style="endArrow=none;html=1;rounded=0;entryX=0.343;entryY=-0.004;entryDx=0;entryDy=0;entryPerimeter=0;" edge="1" target="-Yp7aiIqVqqTGb4Fy1kx-61" parent="1">
          <mxGeometry width="50" height="50" relative="1" as="geometry">
            <mxPoint x="-304.63607594936695" y="-50" as="sourcePoint" />
            <mxPoint x="-179.00000000000006" y="18" as="targetPoint" />
          </mxGeometry>
        </mxCell>
        <mxCell id="-Yp7aiIqVqqTGb4Fy1kx-63" value="Estatus Proveedor" style="whiteSpace=wrap;html=1;align=center;" vertex="1" parent="1">
          <mxGeometry x="340" y="260" width="100" height="40" as="geometry" />
        </mxCell>
      </root>
    </mxGraphModel>
  </diagram>
</mxfile>
